<?xml version="1.0" standalone="no"?>
<!DOCTYPE svg PUBLIC "-//W3C//DTD SVG 20010904//EN"
 "http://www.w3.org/TR/2001/REC-SVG-20010904/DTD/svg10.dtd">
<svg version="1.0" xmlns="http://www.w3.org/2000/svg"
 width="99.000000pt" height="99.000000pt" viewBox="0 0 99.000000 99.000000"
 preserveAspectRatio="xMidYMid meet">

<g transform="translate(0.000000,99.000000) scale(0.100000,-0.100000)"
fill="#000000" stroke="none">
<path d="M205 978 c-2 -7 -5 -26 -7 -43 l-3 -30 -75 -3 c-110 -4 -110 -5 -110
-174 0 -116 2 -138 15 -138 13 0 15 -37 15 -270 l0 -271 25 -24 24 -25 406 0
c392 0 406 1 425 20 19 19 20 33 20 295 0 268 0 275 20 275 19 0 20 7 20 138
0 170 -1 172 -108 172 l-71 0 -3 43 -3 42 -50 0 -50 0 -3 -42 -3 -43 -190 0
-189 0 0 33 c0 18 -5 38 -12 45 -16 16 -87 16 -93 0z m625 -606 c0 -210 -1
-220 -21 -238 -20 -18 -40 -19 -314 -19 -274 0 -294 1 -314 19 -20 18 -21 28
-21 238 l0 218 335 0 335 0 0 -218z"/>
<path d="M250 460 l0 -60 55 0 55 0 0 60 0 60 -55 0 -55 0 0 -60z"/>
<path d="M440 460 l0 -60 55 0 55 0 0 60 0 60 -55 0 -55 0 0 -60z"/>
<path d="M630 460 l0 -60 55 0 55 0 0 60 0 60 -55 0 -55 0 0 -60z"/>
<path d="M250 260 l0 -60 55 0 55 0 0 60 0 60 -55 0 -55 0 0 -60z"/>
<path d="M440 260 l0 -60 55 0 55 0 0 60 0 60 -55 0 -55 0 0 -60z"/>
<path d="M630 260 l0 -60 55 0 55 0 0 60 0 60 -55 0 -55 0 0 -60z"/>
</g>
</svg>
