<?xml version="1.0" encoding="utf-8"?>
<!-- Generator: Adobe Illustrator 25.4.1, SVG Export Plug-In . SVG Version: 6.00 Build 0)  -->
<svg version="1.1" id="Слой_1" xmlns="http://www.w3.org/2000/svg" xmlns:xlink="http://www.w3.org/1999/xlink" x="0px" y="0px"
	 viewBox="0 0 3000 3000" style="enable-background:new 0 0 3000 3000;" xml:space="preserve">
<style type="text/css">
	.st0{fill:url(#SVGID_1_);}
</style>
<linearGradient id="SVGID_1_" gradientUnits="userSpaceOnUse" x1="2345.3303" y1="2053.7932" x2="628.1395" y2="452.4868">
	<stop  offset="0" style="stop-color:#C18F41"/>
	<stop  offset="0.26" style="stop-color:#9F6728"/>
	<stop  offset="0.67" style="stop-color:#FED986"/>
	<stop  offset="1" style="stop-color:#D09B4C"/>
</linearGradient>
<path class="st0" d="M1003.2,867.9c38.5-11.8,77.7-22.2,117.3-31.3l2.8-18.8C1087.8,823.7,1046.2,837.8,1003.2,867.9z M865.2,1030.1
	c-5.3,9.6-10.6,19.7-15.8,30.2c0.6-0.6,19.6-20.8,48.8-43.1C887.2,1021.4,876.2,1025.7,865.2,1030.1z M1206.4,752.3
	c38.6,15,65.4,39.1,79.8,54.7c22-2.8,44.1-5.2,66.3-7.2C1322.5,777.5,1275.8,755.6,1206.4,752.3z M1286,920.6
	c-15.5,2-30.9,4.2-46.2,6.6c39.4,18.5,68.3,39.9,68.9,40.4C1308.5,967,1299.6,945.8,1286,920.6z M1649.9,798.7
	c22.1,1.8,44.1,4,66,6.7c14.8-15.5,40.9-38.1,77.6-52.3C1726,756.2,1680,777.1,1649.9,798.7z M1715.3,918.9
	c-14.2,26.2-23.7,48.7-23.9,49.2c0.6-0.5,31.8-23.5,73.5-42.5C1748.5,923.1,1731.9,920.9,1715.3,918.9z M2130,1022.3
	c-15.1-5.9-30.4-11.5-45.7-17c39.4,26.9,66.2,55.6,66.2,55.6C2143.8,1047.4,2137,1034.5,2130,1022.3z M2325.9,1824.8
	c0,0-63.2-124.6-44.6-176.9c33.4-104-61.3-255.3-62-256.3c0.9,0.5,58.5,33,93,102c-7.4-99.8-42.1-136.6-94.2-213.4
	c59.5-64.9,24.8-148.5,24.8-148.5s1.2,52.2-28.5,76.6c-94.2,55.7-156.2-103.2-156.2-103.2s52.1,8.1,131.4,73.1
	c-34.6-95.1-142.5-172.8-216.3-208c-56.9-15.9-114.9-29-174-39.1c-18.8,12-25.5,19.6-25.5,19.6s144.4,5.8,215.1,95.1
	c-91.7-37.1-236.8-37.1-271.5-29c155.7,24.4,225.6,70.8,271.5,138c-1.4-0.8-102.5-62.5-236.8-41.8c21.1-30.2,81-31.3,81-31.3
	s-120.7-37.1-274.4,27.8c12.3-66.3,46.2-146.7,111-195.6c-53.4-5-107.5-7.5-162.2-7.5c-59,0-117.2,3-174.7,8.8
	c63.3,49.1,96.5,128.4,108.6,193.8c-153.7-65-274.4-27.9-274.4-27.9s60,1.2,81.1,31.3c-134.2-20.7-235.4,40.9-236.8,41.7
	c45.9-67.3,115.8-113.7,271.5-138c-34.7-8.1-179.7-8.1-271.5,29c70.7-89.3,215.1-95.1,215.1-95.1s-5.8-6.6-21.6-17.2
	c-68.5,12.2-135.6,28.3-201.1,48.3c-71.6,39.1-162.1,110.6-193.2,196.2c79.3-65,131.4-73.1,131.4-73.1s-62,158.9-156.2,103.2
	c-29.8-24.4-28.5-76.6-28.5-76.6s-34.7,83.5,24.8,148.5c-52.1,76.8-86.8,113.6-94.2,213.4c34.4-69,92.1-101.5,93-102
	c-0.6,1-95.3,152.3-62,256.4c18.6,52.2-44.6,176.8-44.6,176.8s97.9-57.4,109.1-145.5c9.9,128.9-23.6,160.1-18.6,226.2
	c4.9,66.1,45.9,164.7,45.9,164.7s1.6-99.2,12.8-148.5c23.6,121.2,10.2,235.3,119.9,379.6c-37.2-118.5,16.1-128.4,16.1-128.4
	c31.6,134,120.9,320.2,153.9,370.6c33,50.5,195.7,142.7,257.1,165.3c61.4,22.6,130.8,147.5,130.8,147.5s67.6-124.2,129-146.8
	c61.4-22.6,224.1-114.8,257.1-165.3c33-50.5,122.2-236.6,153.8-370.6c0,0,53.3,9.9,16.1,128.4c109.7-144.2,96.3-258.3,119.8-379.5
	c11.2,49.3,12.8,148.5,12.8,148.5s40.9-98.6,45.9-164.7c5-66.1-28.5-97.3-18.6-226.2C2228,1767.5,2325.9,1824.8,2325.9,1824.8z
	 M1228.7,1193.4c-38.4-40.3-94.2-43.8-132.7-33.3c54.6-45.8,253.3-27.2,291.9,17.4c-28-34-68.7-51.4-69.9-51.9
	c2.7,0.4,159.9,23.4,184.8,83.8c24.9-60.4,179.3-83.8,182-84.2c-1.3,0.5-41.9,17.9-69.9,51.9c38.5-44.7,237.3-63.2,291.8-17.4
	c-38.4-10.4-94.2-7-132.6,33.4c123.4-52.5,162.1,11.6,178.5,38.9c-29.1-31.3-62.9-38.9-82.4-38.9c144.1,67,77.2,170.5,77.2,170.5
	s-40.6-18.3-65.8-25.2c-1.3-0.3-2.7-0.7-4.2-1c4.6-14.2,5.8-38.9-10.3-52.7c11.5,22.3,4,40.1-3.4,50.5
	c-34.1-4.4-93.5-4.4-122.9,10.2c-14.2,7.1-26.4,14.5-36.3,22.1c-7.1-18.7-12.9-51.8,8.4-92.4c-26.3,33.7-28.7,66.5-22.4,104.7
	c-7.3,7.5-12.6,15.1-15.6,22.5c-7.9,19.3-8.7,58-8.7,58s0,9.7-25.2,10.4c-25.2,0.8-40.1-10.1-43-16.2c-2.9-6.2,2.5-32.5,27.9-56.3
	c24.8-23.2,31.6-79.1,31.9-81.7c-0.7,2.1-13.5,41-25.7,59.1c-19.9,29.4-48,44.1-64.1,54.5c4.1-12.4,2.5-22.8,0-30.5
	c-41.7-51.4-32.2-66.8-35.7-83c-8.7,32,16.3,49.4,19.9,96.2c4.1,53.9-49.4,53.8-49.4,53.8s-56-1-52.2-53.4
	c3.4-46.7,28.6-64.1,19.9-96.2c-3.6,16.2,6,31.6-35.7,83c-2.5,7.7-4.1,18.2,0,30.5c-16.1-10.4-44.2-25.2-64.1-54.5
	c-12.6-18.6-25.8-59.2-25.8-59.2s6.5,58,32,81.8c25.4,23.8,30.8,50.1,27.9,56.2c-2.9,6.2-17.8,17-43,16.2
	c-25.2-0.8-25.2-10.4-25.2-10.4s-0.8-38.7-8.7-58c-3-7.5-8.3-15.1-15.6-22.5c6.3-38.2,3.9-70.9-22.4-104.7
	c21.3,40.6,15.5,73.8,8.4,92.4c-9.9-7.6-22-15-36.3-22.1c-29.4-14.7-88.8-14.6-122.9-10.2c-7.4-10.3-14.9-28.2-3.4-50.5
	c-16.1,13.9-14.8,38.5-10.3,52.7c-1.5,0.3-2.9,0.7-4.2,1c-25.2,6.9-65.8,25.2-65.8,25.2s-66.9-103.5,77.2-170.5
	c-19.5,0-53.3,7.6-82.4,38.9C1066.6,1205,1105.4,1140.9,1228.7,1193.4z M1860.2,1989.6c-3.1,15.7-6.9,31.3-11.2,46.4v0
	c-21.5,9-59.9,23-111,32.8c22.7,6,73.6-5.2,105.1-13.4c-5.9,18.6-12.6,36.3-19.6,52.6c0,0,0,0.1-0.1,0.4
	c-24.9,8.2-67.4,17.2-138.8,21.5c33.8,6.4,90.9,4.9,136.2-5c-5.1,25.6-18.8,72-51.7,79.9c-39.7,9.5-104.6-14.4-180.8-20.9
	c-2.3-9.3-3.1-23.4,8.7-32.5c-17.1,9.5-23.5,22.4-25.8,31.4c-6.3-0.3-12.8-0.4-19.2-0.4c0-14.7,35-118.5,155.7-166.1
	c28.1-14.5,28.8-51.3,8.8-97.2c0,0-28.8-39.6-23.2-114.5c5.6-74.8,46.7-121.8,126.6-51.3c4.6,4.1,8.9,8.5,12.8,13.3
	c-20.5-11.4-49.8-10.8-91.4,18.7c17.9-9.1,84.3-38.5,113,2.1l10.6,17.6c4.9,7.9,8,17.9,11.1,32.1c3.2,16.5,4,38,0.2,55.4
	c-11.3,43.7-34.2,99.9-127.1,123.8C1794.3,2006.2,1834.3,2004.4,1860.2,1989.6z M1707.8,2245.4c15.4,5,61.3,5.8,61.3,5.8
	s6.8,109.8-61.3,136.1C1717.4,2363,1723.4,2310.4,1707.8,2245.4z M1519.9,2343.4c8.5-0.4,17.8,6.3,18.8,10.9
	c0.4,1.7,0.6,3.7,0.8,5.3c0.2,2.8-2.1,5.1-5.1,5.2l-23.6,0.3c-2,0-3.9-1.1-4.7-2.9c-0.5-1.1-0.8-2.5-0.9-4.4
	C1505,2352.1,1511.4,2343.8,1519.9,2343.4z M1506.8,2222.6h25.7c1.4,0,2.1,1.5,1.1,2.4c-3.6,2.9-9.9,7.6-13.9,7.7h-0.1
	c-4-0.1-10.3-4.7-13.9-7.7C1504.7,2224.1,1505.4,2222.6,1506.8,2222.6z M1535.5,2174.7c-0.8,4.3-4.8,7.5-9.5,7.5l-23.2,0.4h-26
	c-4.7,0-8.7-3.2-9.5-7.5c-2.6-14.4-9-45.3-16-52.8c-3.7-3.9-9.8-8.9-16.5-13.9c-0.3-0.7-10.4-23.1-22.9-33.7
	c-12.7-10.7-9.6-20.3-9-28.1c8.1,7.6,19.8,10.2,33.5,8.7c-20.1-4.3-29.7-12.5-38.7-23.5c-31-33.4-60.1-26.7-60.1-26.7
	c49.1,6.2,53,49.2,53.2,51.5c-0.3-1.2-4.1-14.8-21.9-22c-18.6-7.5-53.3-22.6-75.6-44.1c-22.3-21.5,14.2-97.4,26.6-124.7
	c-8.3,48.1-42.1,106.7-1.9,131.7c-13-14.2-9.7-30.9-6.4-45.1c12.2,10.8,22.5,17.2,41.7,17.8c19.2,0.6,44.6,7.5,68.2,16.2
	c20.6,7.6,68.9,9.6,81.3,9.9c12.4-0.3,58-2.7,78.5-10.3c23.5-8.7,49-15.7,68.2-16.2c19.2-0.6,29.5-7,41.7-17.8
	c3.3,14.1,6.6,30.8-6.4,45c40.3-24.9,6.4-83.5-1.9-131.7c12.4,27.3,49,103.2,26.6,124.7c-22.3,21.5-57,36.5-75.6,44.1
	c-17.7,7.2-21.6,20.7-21.9,22c0.2-2.3,4.1-45.3,53.2-51.5c0,0-29.1-6.7-60.1,26.7c-9,11-18.6,19.1-38.7,23.5
	c13.6,1.5,25.4-1.2,33.5-8.7c0.6,7.8,3.7,17.4-9,28.1c-12.5,10.6-22.6,33-22.9,33.7c-6.7,5-12.8,9.9-16.5,13.9
	C1544.4,2129.4,1538.1,2160.2,1535.5,2174.7z M1480.7,2344c0.8,0,1.6,0,2.4,0.1c1.1-0.2,2.3-0.2,3.4-0.2c8.5,0.4,14.9,8.7,14.7,14.5
	c-0.1,1.9-0.5,3.3-0.9,4.4c-0.8,1.8-2.6,2.9-4.7,2.9l-8-0.1l-0.5,0l-15.5,0.2c-2,0-3.9-1.1-4.7-2.9c-0.5-1.1-0.8-2.5-0.9-4.4
	C1465.8,2352.7,1472.2,2344.3,1480.7,2344z M1470.1,2223.2c0.2-0.1,0.5-0.2,0.8-0.2h25.7c1.4,0,2.1,1.5,1.1,2.4
	c-2.7,2.2-6.9,5.4-10.6,6.9c-0.1,0.1-0.2,0.1-0.4,0.1c-1.2,0.5-2.3,0.8-3.2,0.8h-0.1c-4.1-0.1-10.3-4.8-13.9-7.7
	C1468.6,2224.8,1469.1,2223.5,1470.1,2223.2z M1331.3,2237.7c2.2-0.5,4.5-1.1,6.9-1.7c0.8,13.3,20.2,72.1,56.6,89.9
	c0,7-11.6,39.1-11.6,39.1s-50.8,3.9-61.6-18.6c-10.8-22.4-20.2-104.4-20.2-104.4s4.2-0.1,11.3-0.9c2.7,12.3,15.5,60.6,55,85.2
	C1361.6,2318,1330.4,2282.2,1331.3,2237.7z M1397,2252.8c-19-4.6-30.7-11.9-38.1-24.1c0,0,9.3-5.2,30.1-7
	C1385.2,2230.2,1384.6,2246.4,1397,2252.8z M1390.7,2360.1c0.1-1.7,0.4-3.6,0.8-5.4c1-4.6,10.3-11.3,18.8-10.9
	c8.5,0.4,14.9,8.7,14.7,14.5c-0.1,1.9-0.4,3.3-0.9,4.4c-0.8,1.8-2.6,2.9-4.7,2.9l-23.6-0.4
	C1392.8,2365.2,1390.5,2362.8,1390.7,2360.1z M1411,2236h-0.1c-4.8-0.1-12.3-6.1-16.6-9.9c-1.2-1.1-0.4-3,1.3-3h30.8
	c1.7,0,2.5,1.9,1.3,3C1423.3,2229.8,1415.8,2235.9,1411,2236z M1405.6,2151.9c11.8,9.1,11,23.2,8.7,32.5
	c-76.2,6.5-141.1,30.4-180.8,20.9c-32.9-7.9-46.6-54.3-51.7-79.9c45.3,9.9,102.4,11.5,136.2,5.1c-71.4-4.4-113.8-13.4-138.8-21.6
	c0-0.3,0-0.4,0-0.4c-7.1-16.3-13.7-34-19.6-52.6c31.5,8.2,82.4,19.4,105.1,13.4c-51-9.8-89.4-23.8-111-32.8v0
	c-4.3-15.1-8.1-30.7-11.2-46.4c25.9,14.9,65.9,16.7,111,26.7c-92.8-23.9-115.8-80.1-127.1-123.8c-3.8-17.4-3-38.9,0.2-55.4
	c3.2-14.1,6.2-24.2,11.1-32.1l10.6-17.6c28.7-40.6,95.1-11.2,113-2.1c-41.7-29.5-71-30.1-91.4-18.7c3.9-4.8,8.2-9.2,12.8-13.3
	c79.8-70.5,121-23.5,126.6,51.3c5.6,74.8-23.2,114.4-23.2,114.4c-20.1,46-19.4,82.7,8.8,97.2c120.7,47.6,155.7,151.4,155.7,166.1
	c-6.5,0-12.9,0.1-19.2,0.4C1429,2174.2,1422.7,2161.4,1405.6,2151.9z M1294.9,2387.7c-68.1-26.3-61.3-136.1-61.3-136.1
	s45.9-0.8,61.3-5.8C1279.3,2310.8,1285.3,2363.4,1294.9,2387.7z M1411.6,1549.2c15.8,0.9,29.7,7,39,14.8s52.2,15.4,52.2,15.4
	s40.1-7.9,49.4-15.8c9.3-7.8,23.2-13.9,39.1-14.8c-19.5,29.6-35.3,65.2-36.3,104.4c0,0,38.1-111.6,72.5-117.2
	c34.4-5.5,41.3,20.6,30.4,31c-10.9,10.4-37.2,32.2-33,86.1c0.4,5.5,1,11.9,1.8,19.2c-19,54-11.4,98.7-1.8,154.8
	c-0.6-46.6,2.2-85.1,6.4-115.8c9.1,68.6,26.9,166,53.6,220.8c0,11.6-7.8,14.7-14.9,16.6c-7,1.9-94.4,23.2-167.1,25.1
	c-72.7-1.9-162.9-22.8-169.9-24.7c-7-1.9-14.9-5-14.9-16.6c26.7-54.8,44.5-152.1,53.6-220.8c4.2,30.7,7,69.2,6.4,115.8
	c9.6-56,17.3-100.8-1.7-154.8c0.7-7.3,1.3-13.8,1.7-19.2c4.2-53.9-22.2-75.7-33-86.1c-10.9-10.4-4-36.5,30.4-31
	c34.4,5.5,72.5,117.2,72.5,117.2C1446.9,1614.5,1431.1,1578.8,1411.6,1549.2z M1895.4,1468.4c0,0.1,0.1,0.1,0.1,0.2
	c0,0.1,0.1,0.2,0.2,0.3c0,0,0.1,0.1,0.1,0.2c0.3,0.4,0.7,1.1,1.2,1.8c0.3,0.4,0.6,0.9,1,1.4c1.2,1.7,2.8,3.9,4.8,6.4
	c0.3,0.4,0.7,0.9,1.1,1.3c0.3,0.4,0.6,0.8,1,1.2c0.1,0.1,0.1,0.2,0.2,0.2c0.2,0.2,0.4,0.5,0.6,0.8c0.4,0.5,0.8,0.9,1.2,1.4
	c0.4,0.5,0.8,0.9,1.2,1.4c0.8,0.9,1.5,1.8,2.3,2.7c0.3,0.3,0.5,0.6,0.8,0.9c1.6,1.8,3.3,3.6,5.2,5.5c0.6,0.6,1.2,1.2,1.8,1.8
	l0.1,0.1c0.6,0.6,1.2,1.2,1.9,1.8c0,0,0,0,0,0.1c0.3,0.3,0.7,0.6,1,0.9c0.7,0.6,1.3,1.2,2,1.9c0.7,0.6,1.3,1.2,2,1.8
	c0.4,0.3,0.7,0.6,1.1,1c0.7,0.6,1.4,1.2,2.2,1.8c0.7,0.6,1.5,1.2,2.2,1.8c0.6,0.5,1.2,0.9,1.8,1.4c0.2,0.1,0.4,0.3,0.6,0.4
	c0.3,0.2,0.6,0.5,1,0.7c0.4,0.3,0.8,0.6,1.2,0.8c0.8,0.6,1.6,1.1,2.4,1.7c0.4,0.2,0.7,0.5,1.1,0.7c0.3,0.2,0.7,0.5,1,0.7
	c-0.1-0.1-0.3-0.2-0.6-0.3c-0.1-0.1-0.3-0.1-0.4-0.2c-0.1-0.1-0.2-0.1-0.3-0.1c-0.2-0.1-0.4-0.2-0.7-0.3c-0.6-0.3-1.3-0.7-2.1-1.1
	c-0.6-0.3-1.2-0.6-1.9-0.9c-1.2-0.6-2.6-1.2-4.1-1.9c-0.3-0.1-0.6-0.3-1-0.4c-0.7-0.3-1.4-0.6-2.1-1c-0.5-0.2-1.1-0.5-1.7-0.7
	c-0.7-0.3-1.4-0.7-2.2-1c-0.4-0.2-0.8-0.3-1.1-0.5c-0.8-0.3-1.6-0.7-2.4-1c-0.8-0.3-1.6-0.7-2.4-1c-1.2-0.5-2.5-1-3.8-1.5
	c-0.4-0.2-0.9-0.3-1.3-0.5c-0.4-0.2-0.9-0.3-1.3-0.5c-0.9-0.3-1.8-0.7-2.7-1c-0.4-0.2-0.9-0.3-1.3-0.5c-0.5-0.2-0.9-0.3-1.4-0.5
	c-0.1,0-0.2-0.1-0.3-0.1c0,0,0,0,0,0c-0.3-0.1-0.7-0.2-1-0.3c-1.4-0.5-2.8-0.9-4.2-1.4c-0.4-0.1-0.8-0.3-1.3-0.4
	c-0.5-0.2-1-0.3-1.5-0.5c-0.5-0.1-1-0.3-1.5-0.4c-0.4-0.1-0.8-0.2-1.2-0.3c-0.5-0.1-0.9-0.3-1.4-0.4c-1.3-0.3-2.6-0.7-3.8-1
	c-0.5-0.1-0.9-0.2-1.4-0.3c-0.4-0.1-0.9-0.2-1.4-0.3c-0.4-0.1-0.8-0.2-1.2-0.2c-1-0.2-1.9-0.4-2.9-0.5c-0.3,0-0.5-0.1-0.8-0.1
	c0,0,0,0-0.1,0c-0.2,0-0.4-0.1-0.6-0.1c-0.9-0.1-1.7-0.2-2.6-0.3c-0.3,0-0.7-0.1-1-0.1c-0.2,0-0.4,0-0.5-0.1c-0.2,0-0.3,0-0.5,0
	c-0.1,0-0.3,0-0.4,0c-0.8-0.1-1.6-0.1-2.4-0.1c-1.7-0.1-3.3,0-4.9,0.1c-25.4,2.3-103.5,7-138.8,57.4c8.7-28.8,17.7-52.8,17.7-52.8
	s9.6-6.4,19.2-4.8c9.6,1.6,40,5.7,66.6-5.6c26.6-11.3,61.4-22.9,65.7-61.2c5,19.1,13,45.2,44,49c-29.6,1.1-46.6-5-47.1-5.2
	C1895.3,1468.2,1895.3,1468.3,1895.4,1468.4z M1875.4,1380.3c-35.3,77.4-118.1,67.9-140.4,66.1c-21.4,37.4-37.2,46.1-77.2,46.1
	c40.9-7,40-31.3,46.5-62.7c6.5-31.3,26.9-49.6,55.8-63.5c61.4-27,167.4,8.7,167.4,8.7C1901.4,1373.4,1888.4,1375.1,1875.4,1380.3z
	 M1267.7,1446.9c-22.3,1.7-105.1,11.3-140.4-66.1c-13-5.2-26-6.9-52.1-5.2c0,0,106-35.7,167.4-8.7c28.8,13.9,49.3,32.2,55.8,63.5
	c6.5,31.3,5.6,55.7,46.5,62.6C1304.9,1493,1289.1,1484.3,1267.7,1446.9z M1104.3,1424.9c4.3,38.3,39.1,49.9,65.7,61.2
	c26.7,11.3,57,7.2,66.6,5.6c9.6-1.6,19.2,4.8,19.2,4.8s9,24,17.7,52.8c-35.3-50.5-113.4-55.1-138.8-57.4c-1.6-0.1-3.2-0.2-4.9-0.1
	c-0.8,0-1.6,0.1-2.4,0.1c-0.2,0-0.3,0-0.5,0c-0.7,0-1.3,0.1-2,0.2c-0.6,0.1-1.1,0.1-1.7,0.2c-0.1,0-0.1,0-0.2,0
	c-0.1,0-0.2,0-0.3,0.1c-0.1,0-0.1,0-0.2,0c0,0,0,0-0.1,0c-0.3,0-0.6,0.1-0.8,0.1c-0.1,0-0.1,0-0.2,0c-0.2,0-0.4,0.1-0.7,0.1
	c-0.9,0.1-1.8,0.3-2.7,0.5c-0.9,0.2-1.7,0.3-2.6,0.5c-0.1,0-0.1,0-0.2,0c-0.5,0.1-0.9,0.2-1.4,0.3c-1.3,0.3-2.6,0.6-3.8,1
	c-0.5,0.1-0.9,0.2-1.4,0.4c-0.6,0.2-1.2,0.3-1.8,0.5c-0.7,0.2-1.4,0.4-2.1,0.6c-0.6,0.2-1.2,0.4-1.8,0.6c-0.1,0-0.2,0.1-0.3,0.1
	c-0.6,0.2-1.1,0.4-1.7,0.6c-0.7,0.2-1.3,0.4-2,0.7c-0.5,0.2-0.9,0.3-1.4,0.5c-0.2,0.1-0.4,0.1-0.5,0.2c-1.2,0.4-2.3,0.8-3.5,1.3
	c-1.3,0.5-2.6,1-3.9,1.5c-0.6,0.2-1.3,0.5-1.9,0.8c-1.9,0.8-3.7,1.5-5.5,2.3c-0.6,0.3-1.2,0.5-1.8,0.8c-0.9,0.4-1.8,0.8-2.7,1.2
	c-0.6,0.2-1.1,0.5-1.6,0.7c-0.7,0.3-1.5,0.7-2.1,1c-0.3,0.2-0.7,0.3-1,0.4c-0.7,0.3-1.4,0.6-2,0.9c-0.2,0.1-0.5,0.2-0.7,0.3
	c-0.7,0.3-1.3,0.6-2,0.9c-0.3,0.2-0.6,0.3-0.9,0.4c-0.3,0.2-0.6,0.3-0.9,0.4c-0.3,0.1-0.5,0.3-0.8,0.4c-0.4,0.2-0.7,0.4-1,0.5
	c-0.2,0.1-0.4,0.2-0.6,0.3c-0.1,0.1-0.2,0.1-0.3,0.1c-0.2,0.1-0.3,0.2-0.4,0.2c-0.3,0.2-0.5,0.2-0.6,0.3c0.4-0.2,0.7-0.4,1-0.7
	c0.4-0.2,0.8-0.5,1.1-0.7c0,0,0,0,0.1-0.1c0.5-0.3,1-0.7,1.5-1c0.7-0.5,1.3-0.9,2-1.4c0.8-0.5,1.5-1.1,2.2-1.7l1.2-0.9
	c0.7-0.6,1.5-1.2,2.2-1.8c0.4-0.3,0.7-0.6,1.1-0.9c0.7-0.6,1.5-1.2,2.2-1.9c0.7-0.6,1.4-1.2,2-1.8c1.7-1.5,3.3-3.1,4.9-4.6
	c0.3-0.3,0.6-0.6,0.9-0.9c0.3-0.3,0.6-0.6,0.9-0.9c0.3-0.3,0.6-0.6,0.9-0.9c0.3-0.3,0.6-0.6,0.9-0.9c0.6-0.6,1.2-1.2,1.7-1.8
	c0.6-0.6,1.1-1.2,1.7-1.8c0.3-0.3,0.5-0.6,0.8-0.9c0.8-0.9,1.6-1.8,2.3-2.7c0.5-0.6,0.9-1.1,1.4-1.7c0.3-0.4,0.6-0.8,1-1.2
	c0.1-0.1,0.1-0.2,0.2-0.2c0.2-0.2,0.3-0.4,0.4-0.5c0.1-0.1,0.1-0.1,0.2-0.2c2.9-3.6,5.2-6.7,6.8-9c0.3-0.5,0.6-0.9,0.8-1.2
	c0.1-0.2,0.3-0.4,0.4-0.6c0.1-0.1,0.2-0.2,0.2-0.4c0.2-0.2,0.3-0.4,0.4-0.6c0.2-0.3,0.3-0.5,0.4-0.7c0-0.1,0.1-0.1,0.1-0.2
	c0.1-0.2,0.2-0.3,0.2-0.4c-0.5,0.2-17.5,6.4-47.1,5.2C1091.3,1470.1,1099.4,1444,1104.3,1424.9z M1065.7,1592.8
	c4,7.3,10.3,23.4,22.4,44.1c12.9-27.9,25.1-68.6,22.3-111.1c5.6,10.7,10.2,54.8,5.9,82.9c5.7-23.1,15.7-48.3,10.8-66
	c-0.5-1.3-1-2.7-1.5-4.1c0.6,1.3,1.1,2.7,1.5,4.1c6.6,17.9,12.1,28.4,11.5,48.9c4.6-13.9,12.1-12.8,12.1-34.2
	c16.1,26.1,6.2,56.8,0,77.7c14.9-15.7,29.1-35.4,29.8-55.1c9.9,16.8,39.7,30.7,68.5,45.2c-18.3,0.6-45.6,24.6-48,36
	c88-34.2,120.9,16.2,125.2,51c-7.4-20.9-39.9-51.6-65.7-47c17.3,4.1,43.4,16.2,57.6,67.3c-54.2-76.1-145.1-3.8-146.3-2.9
	c0.3-0.7,21.9-45.6,48.6-52.8c-18.6,4.9-41.8,15.6-64,41.8c7.8,6.7,16.2,13.4,25.3,20c-42.7,34.8-68.1,49.8-73.5,128.5
	C1108.2,1867.1,905.7,1646.1,1065.7,1592.8z M1460,2223c1.4,0,2.1,1.5,1.1,2.4c-3.6,2.9-9.8,7.6-13.9,7.7h-0.1
	c-4-0.1-10.3-4.8-13.9-7.7c-1-0.9-0.3-2.4,1.1-2.4H1460z M1428.2,2360.1c0.1-1.7,0.4-3.6,0.8-5.4c1-4.6,10.3-11.3,18.8-10.9
	c8.5,0.4,14.9,8.7,14.7,14.5c-0.1,1.9-0.4,3.3-0.9,4.4c-0.8,1.8-2.6,2.9-4.7,2.9l-23.5-0.4C1430.3,2365.2,1428,2362.8,1428.2,2360.1
	z M1541.3,2223.2h25.7c1.4,0,2.1,1.5,1.1,2.4c-3.6,2.9-9.9,7.6-13.9,7.7h-0.1c-4.1-0.1-10.3-4.8-13.9-7.7
	C1539.2,2224.7,1539.9,2223.2,1541.3,2223.2z M1555.6,2343.4c8.5-0.4,17.8,6.3,18.8,10.9c0.4,1.7,0.6,3.7,0.8,5.3
	c0.2,2.8-2.1,5.1-5.1,5.2l-23.5,0.3c-2,0-3.9-1.1-4.7-2.9c-0.5-1.1-0.8-2.5-0.9-4.4C1540.7,2352.1,1547.1,2343.8,1555.6,2343.4z
	 M1576.4,2222.6h30.8c1.7,0,2.5,1.9,1.3,3c-4.3,3.8-11.8,9.8-16.6,9.9h-0.1c-4.8-0.1-12.4-6.1-16.6-9.9
	C1573.9,2224.5,1574.8,2222.6,1576.4,2222.6z M1613.8,2221.3c20.8,1.8,30.1,7,30.1,7c-7.4,12.2-19.1,19.4-38.1,24.1
	C1618.1,2246,1617.5,2229.7,1613.8,2221.3z M1592.5,2343.4c8.5-0.4,17.8,6.3,18.8,10.9c0.4,1.7,0.6,3.7,0.8,5.3
	c0.2,2.8-2.1,5.1-5.1,5.2l-23.6,0.3c-2.1,0-3.9-1.1-4.7-2.9c-0.5-1.1-0.8-2.5-0.9-4.4C1577.6,2352.1,1584,2343.8,1592.5,2343.4z
	 M1607.9,2325.5c36.4-17.8,55.8-76.6,56.6-89.9c2.4,0.6,4.7,1.2,6.9,1.7c0.9,44.5-30.2,80.4-36.4,88.6c39.5-24.7,52.3-72.9,55-85.2
	c7.1,0.9,11.3,0.9,11.3,0.9s-9.5,82-20.2,104.4c-10.7,22.4-61.6,18.6-61.6,18.6S1607.9,2332.4,1607.9,2325.5z M1821,1738.2
	c9.2-6.6,17.6-13.3,25.3-20c-22.2-26.2-45.4-36.8-64-41.8c26.8,7.2,48.3,52.1,48.6,52.8c-1.2-0.9-92.1-73.2-146.3,2.9
	c14.3-51,40.3-63.2,57.6-67.3c-25.8-4.6-58.3,26.1-65.7,47c4.3-34.8,37.2-85.3,125.2-51c-2.5-11.4-29.8-35.4-48-36
	c28.8-14.5,58.6-28.4,68.5-45.2c0.6,19.7,14.9,39.4,29.8,55.1c-6.2-20.9-16.1-51.6,0-77.7c0,21.5,7.4,20.3,12.1,34.2
	c-0.6-20.5,4.9-31,11.5-48.9c-4.9,17.7,5.1,43,10.8,66c-4.3-28.1,0.3-72.2,5.9-82.9c-2.8,42.5,9.4,83.2,22.3,111.1
	c12.1-20.7,18.4-36.8,22.4-44.1c160,53.3-42.5,274.3-42.5,274.3C1889.2,1788,1863.7,1773,1821,1738.2z M791.8,1592.8
	c-4.7-80,2.8-203.6,45.6-272.3c-30.7-26.1-28.8-72.2-28.8-72.2s55.8,47,87.4,7.8c0.2-0.3,0.5-0.6,0.8-0.9c0.2-0.2,0.4-0.5,0.6-0.7
	c0.7-0.8,1.5-1.7,2.3-2.5c0.3-0.3,0.7-0.7,1-1c1-1,2.1-2.1,3.2-3.1c0.5-0.5,1.1-1,1.6-1.5c0.2-0.2,0.5-0.4,0.7-0.6
	c0.2-0.2,0.4-0.4,0.7-0.6c1.8-1.5,3.6-3,5.6-4.5c0.8-0.6,1.6-1.2,2.4-1.8c0.4-0.3,0.8-0.6,1.2-0.9c0.3-0.2,0.6-0.4,0.9-0.6
	c0.9-0.7,1.9-1.4,2.9-2c0.4-0.3,0.9-0.6,1.3-0.9c1.8-1.2,3.5-2.4,5.4-3.5c0.9-0.6,1.8-1.2,2.8-1.8c0.7-0.4,1.4-0.9,2.1-1.3
	c0.7-0.4,1.4-0.9,2.2-1.3c1.4-0.9,2.9-1.7,4.4-2.6c0.5-0.3,1-0.6,1.5-0.9c0.5-0.3,1-0.6,1.5-0.9c0.5-0.3,1-0.6,1.5-0.8
	c1-0.6,2-1.1,2.9-1.6c1.2-0.6,2.3-1.3,3.5-1.9c0.9-0.5,1.8-1,2.8-1.5c1.5-0.8,3.1-1.6,4.7-2.4c1-0.5,2.1-1.1,3.1-1.6
	c0.5-0.3,1.1-0.5,1.6-0.8c0.3-0.1,0.6-0.3,0.9-0.5c0.5-0.3,1-0.5,1.6-0.8c1.8-0.9,3.7-1.8,5.5-2.7c1.6-0.8,3.1-1.5,4.7-2.2
	c0.3-0.1,0.6-0.3,0.8-0.4c0.5-0.2,1-0.5,1.6-0.7c1-0.5,2.1-1,3.1-1.5c0.5-0.2,1-0.5,1.6-0.7c1.5-0.7,3.1-1.4,4.6-2.1
	c0.5-0.2,1-0.5,1.5-0.7c0.8-0.3,1.6-0.7,2.4-1.1c1.5-0.7,3-1.3,4.5-2c1-0.4,2-0.9,3-1.3c1.2-0.5,2.4-1,3.6-1.5
	c0.3-0.1,0.5-0.2,0.8-0.3c1-0.4,1.9-0.8,2.8-1.2c0.2-0.1,0.4-0.2,0.7-0.3c0.7-0.3,1.3-0.5,1.9-0.8c1.2-0.5,2.3-1,3.5-1.4
	c0.4-0.2,0.9-0.4,1.3-0.6c1.7-0.7,3.3-1.3,4.9-2c0.8-0.3,1.6-0.7,2.4-1c0.4-0.2,0.9-0.4,1.3-0.5c0.4-0.2,0.8-0.3,1.3-0.5
	c0.8-0.3,1.7-0.7,2.5-1l1.1-0.4c1.1-0.4,2.2-0.9,3.2-1.3c0.3-0.1,0.7-0.3,1-0.4c2.1-0.8,4-1.5,5.7-2.2c0.5-0.2,1-0.4,1.5-0.6
	c1.7-0.6,3.2-1.2,4.5-1.7c0.4-0.1,0.8-0.3,1.1-0.4c0.2-0.1,0.4-0.2,0.6-0.2c0.3-0.1,0.5-0.2,0.8-0.3c0.4-0.1,0.8-0.3,1.1-0.4
	c0.1-0.1,0.2-0.1,0.3-0.1c0.2-0.1,0.3-0.1,0.4-0.2c0.1,0,0.2-0.1,0.2-0.1c0.3-0.1,0.5-0.2,0.7-0.2c-0.1,0-0.1,0.1-0.2,0.1
	c0,0-0.1,0-0.2,0.1c-0.1,0-0.2,0.1-0.2,0.1c-0.1,0-0.2,0.1-0.3,0.1c0,0-0.1,0-0.1,0.1c-0.2,0.1-0.3,0.1-0.5,0.2
	c-0.3,0.1-0.6,0.3-0.9,0.4c-0.3,0.1-0.6,0.3-0.9,0.4c0,0,0,0,0,0c-0.3,0.1-0.7,0.3-1,0.5c-0.2,0.1-0.4,0.2-0.6,0.3
	c-0.4,0.2-0.8,0.4-1.3,0.6c-0.4,0.2-0.9,0.5-1.4,0.7c-0.5,0.2-1,0.5-1.5,0.8c-0.5,0.2-0.9,0.5-1.4,0.8c-0.1,0-0.1,0-0.1,0.1
	c-0.5,0.3-1,0.5-1.5,0.8c-0.4,0.2-0.7,0.4-1,0.6c-0.5,0.3-1.1,0.6-1.6,0.9c-0.4,0.2-0.8,0.5-1.3,0.7c-0.6,0.4-1.2,0.7-1.8,1.1
	c-0.6,0.3-1.2,0.7-1.8,1.1c-0.3,0.2-0.7,0.4-1,0.6c-0.7,0.4-1.4,0.9-2.1,1.3c-0.5,0.3-0.9,0.6-1.4,0.9c-0.4,0.2-0.8,0.5-1.1,0.7
	c-0.4,0.2-0.8,0.5-1.1,0.8c-2.7,1.8-5.4,3.7-8.3,5.8c-0.4,0.3-0.8,0.6-1.2,0.9c-3.9,2.9-8,6.1-12.2,9.7c-0.4,0.4-0.9,0.7-1.3,1.1
	c-1.3,1.2-2.7,2.4-4,3.6c-0.4,0.3-0.8,0.7-1.1,1.1c-0.4,0.4-0.9,0.8-1.3,1.2c-0.6,0.5-1.1,1-1.7,1.6c-0.5,0.5-1.1,1-1.6,1.6
	c-0.2,0.2-0.4,0.4-0.6,0.6c-0.4,0.4-0.9,0.9-1.3,1.3c-0.4,0.5-0.9,0.9-1.3,1.3c-0.7,0.7-1.3,1.4-1.9,2c0,0,0,0-0.1,0.1
	c-0.6,0.7-1.2,1.3-1.9,2c-0.4,0.4-0.7,0.8-1.1,1.2c-2.5,2.7-4.9,5.6-7.3,8.6c-0.4,0.5-0.8,1-1.2,1.6c-0.4,0.5-0.8,1-1.2,1.6
	c-0.4,0.5-0.8,1-1.2,1.5c-0.8,1.1-1.7,2.2-2.5,3.4c-0.3,0.5-0.7,0.9-1,1.4c-0.2,0.3-0.4,0.6-0.6,0.9c-0.4,0.6-0.8,1.1-1.1,1.7
	c-0.3,0.5-0.7,1-1,1.6c-0.3,0.4-0.6,0.9-0.9,1.3c-0.4,0.6-0.7,1.1-1.1,1.7c-0.4,0.6-0.8,1.2-1.2,1.9c-0.3,0.5-0.6,0.9-0.9,1.4
	c0,0,0,0.1-0.1,0.1c-0.6,0.9-1.1,1.9-1.7,2.9c0,0,0,0,0,0.1c-0.4,0.8-0.9,1.5-1.3,2.3c-0.2,0.3-0.3,0.5-0.4,0.8
	c-0.1,0.3-0.3,0.5-0.4,0.8c-0.1,0.1-0.1,0.2-0.1,0.2c-0.1,0.2-0.3,0.5-0.4,0.7c-0.4,0.6-0.7,1.3-1,1.9c-0.3,0.6-0.7,1.3-1,1.9
	c-0.3,0.7-0.7,1.3-1,2c-0.3,0.6-0.6,1.1-0.8,1.7c-0.2,0.4-0.4,0.7-0.5,1.1c-0.2,0.4-0.4,0.8-0.6,1.2c-0.3,0.7-0.6,1.4-0.9,2.1
	c-0.3,0.7-0.6,1.3-0.9,2c0,0,0,0.1,0,0.1c-0.3,0.7-0.6,1.4-0.9,2.1c-0.3,0.7-0.6,1.4-0.8,2.1c-0.3,0.7-0.6,1.4-0.8,2.1
	c-0.3,0.7-0.5,1.4-0.8,2.2c-0.3,0.7-0.5,1.5-0.8,2.2c-0.2,0.6-0.4,1.2-0.6,1.8c-0.1,0.3-0.2,0.6-0.3,0.9c-0.2,0.6-0.4,1.2-0.6,1.8
	c-0.2,0.7-0.4,1.3-0.6,2c-0.1,0.3-0.2,0.7-0.3,1.1c-0.2,0.5-0.3,1-0.4,1.5c-0.4,1.3-0.7,2.6-1.1,3.9c-0.1,0.5-0.2,1-0.4,1.5
	c-0.2,0.6-0.3,1.2-0.4,1.8c-0.2,0.6-0.3,1.2-0.4,1.8c-0.2,0.9-0.4,1.8-0.6,2.6c-0.1,0.3-0.1,0.6-0.2,0.9c0,0.1,0,0.2-0.1,0.3
	c-0.1,0.5-0.2,0.9-0.3,1.4c-0.2,0.8-0.3,1.6-0.5,2.5c-0.1,0.5-0.2,1-0.3,1.5c-0.1,0.5-0.2,1-0.2,1.5c0,0.1,0,0.1,0,0.2
	c-0.1,0.7-0.2,1.5-0.3,2.3c-0.1,0.6-0.2,1.1-0.2,1.7c-0.1,0.8-0.2,1.6-0.3,2.4c0,0.1,0,0.1,0,0.2c0,0.2,0,0.4-0.1,0.7
	c0,0,0,0.1,0,0.1c-0.1,0.7-0.2,1.4-0.2,2.1c-0.1,0.6-0.1,1.2-0.2,1.9c0,0.1,0,0.2,0,0.2c-0.1,0.6-0.1,1.2-0.2,1.8
	c0,0.5-0.1,0.9-0.1,1.4c-0.1,0.9-0.1,1.7-0.2,2.6c0,0.6-0.1,1.1-0.1,1.7c0,0.8-0.1,1.5-0.1,2.3c0,0.8-0.1,1.5-0.1,2.3
	c0,0.4,0,0.8,0,1.2c0,0.4,0,0.8,0,1.1c0,0.9,0,1.7,0,2.6v0.3c0,0.1,0,0.3,0,0.5c0,0.7,0,1.3,0,2c0,0.2,0,0.4,0,0.6
	c0,0.6,0,1.2,0,1.8c0,0.5,0,1,0.1,1.5c0,0.7,0.1,1.5,0.1,2.2c0,0.9,0.1,1.8,0.1,2.6c0,0.1,0,0.2,0,0.3c0,0.5,0.1,1,0.1,1.5
	c0,0.2,0,0.4,0,0.5c0.1,1.7,0.3,3.4,0.4,5.2c0,0.1,0,0.1,0,0.1c0.1,1,0.2,2.1,0.3,3.1c0.1,1.1,0.3,2.2,0.4,3.3c0,0.1,0,0.1,0,0.2
	c0,0.2,0,0.3,0.1,0.5c0.2,1.3,0.4,2.6,0.6,4c21.2-69,68.4-109.8,69.2-110.5c-1,1.6-70.9,113.7-53.3,198.3
	c-2.8-26.7,60.4-77.5,61.4-78.3c-0.4,0.9-56.7,112.5-55.8,180.1c-13-38.3-64.2-153.1-62.3-230.5c-10.1,66.2-2.1,161.4-1,166
	c-1.5-4.4-30.9-91.2-36.2-142.8C841.1,1379.6,800.1,1501.2,791.8,1592.8z M949.2,1840.3c0,0-30.7,63.3-30.7,174.6
	c-58.9-170.7,13.7-318.5,14.5-320.2c-1.2,0.9-95.6,67.8-115.3,145.5c-17.4-206,83-291.1,83-291.1c-37.2,95.1-24.2,146.7-24.2,146.7
	s97.3-97.4,130.8-198.3c-4.6,113.7-73.8,323.6-73.8,323.6s48.3-66.6,53.3-133.4c16.1,57.4,5,169.6,1.2,201.8
	c19.8-33.9,24.2-118.3,24.2-118.3c13.6,41.8,6.2,95.7,6.2,95.7s-14.5,116.6,12.4,216.3C933.1,1970.9,949.2,1840.3,949.2,1840.3z
	 M1054.6,2067.2C1072,2309.6,1129,2407,1129,2407s0-106.5,34.7-161.2c-24.5,119.2-11.2,244.8,37.2,319
	C982.7,2334,1054.6,2067.2,1054.6,2067.2z M1661.6,2643.1c-58.3,30.1-146.6,95.1-160.7,134.5c-14.1-39.4-104.1-105-162.4-135.1
	c-56.9-29.5-79.5-120.9-80.5-125.1c1.7,4.3,43.2,107.1,182.2,156.5c-12-17.4-41.9-47-49.5-92.2c43.9,52.2,74.9,92.2,110.2,108.5
	c35.3-16.2,64.7-55.7,108.6-107.9c-7.6,45.2-37.5,74.8-49.5,92.2c138.9-49.4,180.5-152.1,182.2-156.4
	C1741.2,2522.2,1718.5,2613.7,1661.6,2643.1z M1717,2449.4c-25.4-4.6-75.6-17-114-18c-39-1-88.3,4-98.4,5.1v0c0,0,0,0-0.1,0
	c0,0,0,0,0,0c-0.2,0-0.8-0.1-1.8-0.2c-10.5-0.9-63.8-5.6-103-4.5c-38.5,1-88.6,13.3-114,18c-25.4,4.6-77.4,6.3-96.7-0.6
	c-19.2-7,11-56.3,16-112.9c4.9-56.4,0.4-102,0.4-102l-0.3-19.1c0.4,0.5,4.6,25.1,9.2,31.4c4.6,6.4,8.7,4.9,8.7,4.9
	s-2.6,22.2-2.1,55.6c0.1,6.1-0.2,11.8,0.3,17.6c3.5,24.3,19.1,54.6,45.2,71.5c-20.2-8.1-37.6-9.1-48.6-31.1
	c-7.2,32.4-12.7,55.5-1,60.1c18.1,7,55.2,0.1,79.1-4.6c23.9-4.6,71.1-17,107.3-18c39.8-1.1,97.4,4.9,101.1,5.3
	c9.5-1.2,58-6.8,95-5.8c36.2,1,83.4,13.3,107.3,18c23.9,4.6,61,11.5,79.1,4.6c11.7-4.5,6.2-27.7-1-60.1c-11,22-28.3,23-48.6,31.1
	c26.1-16.9,41.7-47.2,45.2-71.5c0.5-5.8,0.2-11.5,0.3-17.6c0.5-33.4-2.1-55.6-2.1-55.6s4,1.4,8.7-4.9c4.6-6.3,8.7-30.8,9.2-31.4
	l-0.3,19.1c0,0-4.5,45.6,0.4,102c5,56.7,35.2,106,16,112.9C1794.5,2455.7,1742.4,2454.1,1717,2449.4z M1799.2,2565.4
	c48.3-74.2,61.7-199.8,37.2-319c34.7,54.7,34.7,161.2,34.7,161.2s57-97.4,74.4-339.9C1945.5,2067.8,2017.4,2334.6,1799.2,2565.4z
	 M2182.3,1840.9c-19.7-77.7-114.1-144.7-115.3-145.5c0.8,1.6,73.4,149.5,14.6,320.2c0-111.4-30.7-174.7-30.7-174.7
	s16.1,130.6-81.8,243.1c26.9-99.8,12.4-216.3,12.4-216.3s-7.4-53.9,6.2-95.7c0,0,4.3,84.4,24.2,118.3
	c-3.7-32.2-14.9-144.4,1.2-201.8c5,66.8,53.3,133.4,53.3,133.4s-69.1-210-73.8-323.6c33.5,100.9,130.8,198.4,130.8,198.4
	s13-51.6-24.2-146.7C2099.2,1549.9,2199.6,1635,2182.3,1840.9z M2208.3,1593.4c-8.3-91.5-49.3-213.1-65.1-236
	c-5.4,51.7-34.8,138.7-36.2,142.8c1.1-4.4,9.2-99.8-0.9-166.1c1.9,77.4-49.3,192.3-62.3,230.5c0.9-67.6-55.3-179.2-55.8-180.1
	c1,0.8,64.1,51.6,61.4,78.3c17.5-84.7-52.4-196.8-53.4-198.3c0.8,0.6,47.9,41.4,69.2,110.5c20.9-140.3-105.6-196.6-111.4-199.1
	c5.3,1.9,119.5,42.6,150.4,80.8c31.6,39.2,87.4-7.8,87.4-7.8s1.9,46.1-28.8,72.2C2205.5,1389.8,2213,1513.3,2208.3,1593.4z
	 M1874,818l1.8,14.4c36.1,7.9,71.8,16.8,107,26.9C1943.7,834.9,1906.2,823,1874,818z M1273.2,808.7c-17.8,2.4-35.6,5.1-53.2,8.1
	h-0.2c-0.1,0-0.3-0.1-0.4-0.1c-2.7-1.4-6.1-3.1-10.6-5.4c-2.1-1-4.4-2.2-7-3.4h0c-3.8-6.8-7.4-15.3-8.6-24.4
	c2.4,0.4,4.8,0.9,7.2,1.3c1.4,0.3,2.8,0.6,4.1,0.9C1232.5,791.7,1256.5,801,1273.2,808.7z M1806.9,784.2c-1.2,9.2-4.9,17.8-8.7,24.6
	c-2.5,1.2-4.8,2.2-6.9,3.2c-2.4,1.1-4.6,2.2-6.4,3.1c-1.9-0.3-3.8-0.6-5.8-0.9c-15.9-2.5-31.8-4.8-47.8-6.9
	c15.7-6.9,36.7-14.8,60.8-20.2h0c2.5-0.6,5-1.1,7.5-1.6C1802.2,785.1,1804.5,784.7,1806.9,784.2z M1792.4,787.2L1792.4,787.2
	 M2263.6,361.5c-77.7,52.8-139.4,127.4-176.2,215.1c-0.7,1.6-1.4,3.3-2,4.9c0,0,0,0,0,0c-4.9,12.2-9.4,24.6-13.4,37.2
	c-1.2,3.8-2.3,7.6-3.4,11.4c-6.2-26-29.6-45.2-57.5-45.2c-32.7,0-59.1,26.5-59.1,59.1c0,2.5,0.2,5,0.5,7.4v0
	c0.4,2.2,0.8,4.3,1.2,6.5c0,0,0,0,0,0c0,0,0,0,0,0.1c2.9,14.5,7,28.7,12.2,42.2c3.1,8,6.5,15.7,10.4,23.3
	c7.1,14,15.4,27.1,24.8,39.5c-5.6-5-13-8.1-21.1-8.1c-14.1,0-26,9.2-30.2,21.9c0,0,0,0,0,0.1c-3.1,12.2,2.7,27.6,33,44.2
	c-9.8-2.3-18.7-5.8-26.5-10.3c11.4,19.6,32.5,32.8,56.8,32.8c0.7,0,1.5,0,2.2,0c14.6-0.5,28.1-5.8,38.8-14.3
	c3.2-2.6,6.2-5.4,8.8-8.5c4.7-5.5,8.5-11.8,11.2-18.6c0.2-0.5,0.4-1.1,0.6-1.6c0-0.1,0-0.1,0.1-0.2c0,0,0-0.1,0.1-0.1
	c4.2-11.1,7.8-22.4,10.9-34c7-26.2,11-53.5,11.8-81.6c4.9,20.2,7.4,41.3,7.4,63c0,21.8-2.6,43-7.5,63.3c-2.1,8.6-4.6,17.1-7.5,25.4
	c-2.8,8-5.9,15.8-9.5,23.4c0,0-0.4,0.9-1.2,2.5c-4.1,8.8-8.8,17.4-13.8,25.6c-1.8,2.9-3.6,5.8-5.5,8.6c0,0,0,0,0,0
	c-0.1,0-0.1,0-0.2,0c-3,4.2-6,7.7-8.8,9.9c1.3-3.1,2-7.7,2.5-11.9c-3.8-1.2-7.7-2.4-11.6-3.6c-6-1.9-12.1-3.7-18.1-5.5
	c-6.1-1.8-12.1-3.6-18.2-5.3c-4-1.2-8.1-2.3-12.2-3.4c-4.1-1.1-8.1-2.3-12.2-3.4c-2-0.6-4.1-1.1-6.1-1.6c-2-0.5-4.1-1.1-6.1-1.6
	c-1.7-0.5-3.4-0.9-5.1-1.4c-2.1-0.6-4.3-1.1-6.4-1.7c-2.3-0.6-4.6-1.2-6.8-1.7c-2.1-0.5-4.1-1-6.2-1.5c-4.1-1-8.2-2-12.3-3
	c-2.1-0.5-4.1-1-6.2-1.5c-4.1-1-8.3-2-12.4-2.9c-8.3-1.9-16.6-3.8-24.9-5.6c-3.7-0.8-7.5-1.6-11.2-2.4c-0.4-0.1-0.8-0.2-1.2-0.2
	c0,0,0,0-0.1,0c-2.1-0.4-4.2-0.9-6.2-1.3c-2.1-0.4-4.2-0.8-6.3-1.3v0c-2-8.7-3.1-17.8-3.1-27.1c0-30.1,11.3-57.7,29.8-78.6
	c1.8-2,3.7-4,5.6-5.9c6.5-8.1,10.4-18.5,10.4-29.7c0-10.4-3.3-20.1-9-27.9c0-0.1-0.1-0.1-0.1-0.2c0,0,0,0.1-0.1,0.2
	c-8.1-11.2-20.9-18.7-35.6-19.6c-0.5,0-1,0-1.4-0.1c-0.4,0-0.9,0-1.4,0c-0.4,0-0.8,0-1.2,0c-0.4,0-0.8,0-1.2,0.1
	c-0.8,0-1.5,0.1-2.3,0.2c-0.2,0-0.5,0-0.8,0.1c0,0-0.1,0-0.1,0c-0.2,0-0.4,0.1-0.7,0.1c-0.5,0.1-1,0.1-1.4,0.2c-0.1,0-0.1,0-0.2,0
	c-0.1,0-0.1,0-0.2,0c-0.1,0-0.2,0-0.2,0c-0.1,0-0.2,0-0.3,0c0,0,0,0,0,0c-0.4,0.1-0.8,0.2-1.2,0.2c-0.1,0-0.2,0-0.3,0.1l-0.1,0
	c-0.3,0.1-0.5,0.1-0.8,0.2c-0.1,0-0.1,0-0.2,0c0,0-0.1,0-0.1,0c0,0,0,0,0,0c0,0,0,0,0,0c0,0,0,0,0,0c0,0,0,0,0,0
	c-0.2,0-0.3,0.1-0.5,0.1c-0.2,0-0.4,0.1-0.7,0.2c0,0-0.1,0-0.1,0c0,0-0.1,0-0.1,0c0,0,0,0-0.1,0c-0.2,0.1-0.4,0.1-0.6,0.2
	c0,0,0,0-0.1,0c-0.1,0-0.1,0-0.2,0c-0.1,0-0.1,0-0.2,0.1c-0.2,0.1-0.4,0.1-0.7,0.2c-0.2,0.1-0.4,0.1-0.7,0.2
	c-0.2,0.1-0.4,0.1-0.6,0.2c0,0-0.1,0-0.1,0c0,0-0.1,0-0.1,0c0,0-0.1,0-0.1,0c-0.3,0.1-0.5,0.2-0.8,0.3c-0.4,0.1-0.7,0.3-1.1,0.4
	c-0.4,0.1-0.7,0.3-1.1,0.4c0,0,0,0,0,0c-0.3,0.1-0.6,0.2-0.9,0.4c0,0-0.1,0-0.1,0c-0.2,0.1-0.4,0.2-0.5,0.2
	c-0.2,0.1-0.4,0.2-0.6,0.3c-0.6,0.3-1.1,0.6-1.7,0.9c-0.1,0-0.2,0.1-0.3,0.1c0,0,0,0,0,0c0,0,0,0-0.1,0c0,0-0.1,0-0.1,0.1
	c-0.4,0.2-0.7,0.4-1.1,0.6c-0.4,0.2-0.7,0.4-1.1,0.6c0,0,0,0-0.1,0c0,0-0.1,0-0.1,0.1c-0.2,0.2-0.5,0.3-0.7,0.5
	c-0.1,0-0.1,0.1-0.2,0.1c-0.2,0.1-0.4,0.3-0.6,0.4c0,0,0,0,0,0c-0.3,0.2-0.6,0.4-0.9,0.6c0,0,0,0,0,0c-0.3,0.2-0.6,0.4-0.9,0.7
	c-0.3,0.2-0.6,0.4-0.8,0.7c-0.8,0.7-1.7,1.4-2.5,2.1c-0.3,0.2-0.5,0.5-0.8,0.7c-0.3,0.2-0.5,0.5-0.8,0.8c-0.2,0.2-0.5,0.5-0.7,0.8
	c-0.2,0.2-0.5,0.5-0.7,0.8c-0.2,0.2-0.4,0.4-0.6,0.6c-0.1,0.1-0.2,0.3-0.4,0.4c-0.1,0.2-0.3,0.4-0.4,0.5c-0.2,0.2-0.4,0.4-0.6,0.7
	c-0.3,0.3-0.5,0.7-0.8,1c-0.2,0.3-0.4,0.5-0.6,0.8c-0.2,0.3-0.5,0.6-0.7,0.9c-0.1,0.2-0.3,0.4-0.4,0.6c-0.3,0.4-0.5,0.8-0.8,1.2
	c-0.2,0.3-0.4,0.6-0.6,0.9c-0.2,0.3-0.4,0.6-0.5,0.9c-0.2,0.3-0.4,0.6-0.5,0.9c-0.2,0.3-0.3,0.6-0.5,1c-0.2,0.4-0.4,0.8-0.6,1.2
	c-0.1,0.3-0.2,0.5-0.4,0.8c-0.1,0.3-0.3,0.7-0.4,1c-0.1,0.3-0.3,0.7-0.4,1c-0.1,0.3-0.3,0.7-0.4,1c-0.1,0.3-0.2,0.6-0.3,0.9
	c0,0.1-0.1,0.2-0.1,0.3c-0.1,0.3-0.2,0.6-0.3,0.9c-0.1,0.3-0.2,0.7-0.3,1c-0.1,0.4-0.2,0.7-0.3,1.1c-0.1,0.3-0.2,0.7-0.2,1
	c-0.1,0.2-0.1,0.5-0.2,0.7c-0.1,0.2-0.1,0.5-0.2,0.7c-0.1,0.3-0.1,0.5-0.2,0.8c-0.1,0.3-0.1,0.7-0.2,1c-0.1,0.4-0.1,0.8-0.2,1.2
	c0,0,0,0,0,0.1c0,0,0,0.1,0,0.1c0,0.2-0.1,0.5-0.1,0.7c0,0.1,0,0.1,0,0.2c0,0.3-0.1,0.7-0.1,1c-0.1,0.4-0.1,0.8-0.1,1.3
	c0,0.4,0,0.8-0.1,1.1c0,0.4,0,0.8,0,1.2c0,0.4,0,0.8,0,1.2c0,0.5,0,1.1,0,1.7c0,0.5,0,1,0.1,1.5c0,0,0,0,0,0c0.2,3.5,0.9,7,1.9,10.3
	c0,0,0,0,0,0c0.8,2,1.5,3.9,2.2,6c0,0,0,0,0,0c0.1,0.2,0.1,0.3,0.2,0.5c3.2,9.4,5.2,19.3,5.9,29.7c0.2,2.7,0.3,5.4,0.3,8.2
	c0,7-0.6,14-1.8,20.7c-1.2,6.6-2.9,13-5.1,19.1c-2.7,7.6-6.2,14.9-10.3,21.6c0,0-0.1,0.1-0.2,0.3c-1.5,2.5-11.3,19-23.9,24.6
	c3.9-6.1,6.6-11.6,8.4-16.3c-0.5-0.1-0.9-0.1-1.4-0.2c-4.2-0.7-8.4-1.3-12.6-1.9c-1.7-0.3-3.5-0.5-5.2-0.8c-1.9-0.3-3.7-0.6-5.6-0.8
	c-1.9-0.3-3.8-0.5-5.6-0.8c-1.9-0.3-3.8-0.5-5.6-0.8c-2.2-0.3-4.4-0.6-6.5-0.9c-0.2,0-0.5-0.1-0.7-0.1c-3.2-0.4-6.5-0.9-9.7-1.3
	c-1.9-0.2-3.8-0.5-5.6-0.7c-5.7-0.7-11.3-1.4-17-2.1c-3.8-0.5-7.6-0.9-11.4-1.3c-1.9-0.2-3.8-0.4-5.7-0.6c-1.5-0.2-3.1-0.3-4.6-0.5
	c-0.3,0-0.7-0.1-1-0.1c0,0-0.1,0-0.1,0c-1.9-0.2-3.7-0.4-5.6-0.6c-1.9-0.2-3.8-0.4-5.7-0.6c-1.9-0.2-3.8-0.4-5.7-0.5
	c-1.9-0.2-3.8-0.4-5.7-0.5c-3.8-0.3-7.6-0.7-11.4-1c-3.8-0.3-7.6-0.6-11.4-1c-1.9-0.1-3.8-0.3-5.8-0.4c-7.7-0.6-15.3-1.1-23-1.6
	c-6.2-8.1-12-16.7-17.2-25.5c-5.3-8.8-10-18-14.3-27.5c-5.9-13.2-10.8-26.9-14.5-41.1c-5.8-21.9-8.8-44.8-8.8-68.5
	c0-5.2,0.1-10.4,0.4-15.5v-0.1c0-1,0.1-2,0.2-2.9c0,0,0,0,0,0c0.3-2.8,1-5.5,2.1-8c0,0,0,0,0-0.1c3.4-10.8,11.9-25.8,32.5-37.8
	c-4.6,5-8.9,13-12.2,20.9c2-0.5,4.1-0.7,6.3-0.7c5.7,0,11.1,1.7,15.6,4.5c8.1,5.1,13.4,14.2,13.4,24.4c0,2.6-0.3,5-1,7.4v0
	c-0.4,1.4-0.8,2.7-1.4,4c-2.2,6.9-3.3,14.3-3.3,21.9c0,4.8,0.5,9.4,1.3,13.9c6.5,34,36.4,59.6,72.2,59.6c2.4,0,4.8-0.1,7.1-0.3
	c2.4,0,4.7-0.4,6.9-1c4.6-1.2,8.7-3.7,12-6.9c5.4-5.3,8.7-12.8,8.4-21.1c-0.6-14-11.8-25.5-25.7-26.5c-3.1-0.2-6.1,0.1-9,0.8
	c-0.3,6.8,0.2,16.9,4.2,28.8c-4.5-7.3-8.5-17.2-11.7-26.3c0,0,0,0,0-0.1c-3.3-7.7-5.9-15.9-7.5-24.4c0-0.1,0-0.1,0-0.1
	c-1-5.5-1.7-11.2-1.9-16.9c-0.1-1.5-0.1-3.1-0.1-4.6c0-17.2,3.7-33.5,10.4-48.1c0.3-0.6,0.5-1.2,0.8-1.7h0
	c2.5-5.3,5.4-10.3,8.6-15.1c11.3-16.7,26.8-30.3,45.1-39.2h0c2.6-1.3,5.4-2.5,8.1-3.6c0,0,0,0,0,0c22.7-11.2,41-29.9,51.7-52.8
	c6.7-14.2,10.4-30.1,10.4-46.9c0-18.5-4.5-36-12.6-51.3c-9.7-18.5-24.4-34-42.4-44.5c-17.7-9.3-37.8-14.7-59-15.2h0
	c-1,0-2.1,0-3.1,0c-29.9,0-57.5,9.8-79.9,26.3c0,0,0,0,0,0c-12.8,11.6-24.2,27.3-27.7,47.5c-0.9-6-0.8-12.8-0.2-19.8
	c-12.9,17.3-21.8,37.9-25.2,60.3c-6.7-19.2-10.9-39.4-12.4-60.5c-0.4-5.2-0.5-10.5-0.5-15.9c0-35,7.8-68.1,21.6-97.8
	c2.4-5.2,5.1-10.3,7.9-15.3c3.2-8.5,5-17.8,5-27.5c0-42-33.5-76.3-75.3-77.4c-41.8,1.1-75.3,35.3-75.3,77.4c0,9.7,1.8,19,5,27.5
	c2.8,5,5.4,10.1,7.9,15.3c13.9,29.7,21.6,62.9,21.6,97.8c0,5.3-0.2,10.6-0.5,15.9c-1.4,21.1-5.7,41.4-12.4,60.5
	c-3.4-22.4-12.2-42.9-25.2-60.3c0.7,7,0.7,13.8-0.1,19.8c-3.5-20.2-15-35.9-27.7-47.5c0,0,0,0,0,0c-22.3-16.5-50-26.3-79.9-26.3
	c-1,0-2.1,0-3.1,0h0c-21.3,0.5-41.3,5.9-59,15.2c-18,10.5-32.7,26-42.4,44.5c-8,15.4-12.5,32.8-12.5,51.3c0,16.8,3.7,32.6,10.4,46.9
	c10.7,23,29,41.6,51.7,52.8c0,0,0,0,0,0c2.8,1.1,5.5,2.3,8.1,3.6h0c18.2,8.9,33.8,22.5,45.1,39.2c3.2,4.8,6.1,9.8,8.6,15.1h0
	c0.3,0.6,0.5,1.2,0.8,1.7c6.7,14.7,10.4,31,10.4,48.1c0,1.6,0,3.1-0.1,4.6c-0.2,5.8-0.9,11.4-1.9,16.9c0,0,0,0,0,0.1
	c-1.6,8.5-4.1,16.6-7.5,24.4c0,0,0,0,0,0.1c-3.2,9.1-7.3,19-11.7,26.3c4-11.8,4.5-22,4.2-28.8c-2.9-0.7-5.9-1-9-0.8
	c-14,1-25.1,12.5-25.7,26.5c-0.4,8.3,2.9,15.8,8.3,21.1c3.3,3.2,7.4,5.6,12,6.9c2.2,0.6,4.6,1,7,1c2.3,0.2,4.7,0.3,7.1,0.3
	c35.8,0,65.7-25.7,72.2-59.6c0.9-4.5,1.3-9.2,1.3-13.9c0-7.7-1.2-15-3.3-21.9c-0.6-1.3-1-2.6-1.4-4v0c-0.6-2.3-1-4.8-1-7.4
	c0-10.3,5.3-19.3,13.4-24.4c4.5-2.9,9.8-4.5,15.5-4.5c2.2,0,4.3,0.2,6.3,0.7c-3.2-7.9-7.6-15.9-12.2-20.9c20.6,12,29,26.9,32.5,37.8
	c0,0,0,0.1,0,0.1c1.1,2.5,1.8,5.2,2.1,8c0,0,0,0,0,0c0.1,1,0.2,1.9,0.2,2.9v0.1c0.3,5.1,0.4,10.3,0.4,15.5c0,23.7-3.1,46.7-8.8,68.5
	c-3.7,14.2-8.6,27.9-14.5,41.1c-4.2,9.4-9,18.6-14.3,27.5c-5.3,8.8-11,17.3-17.2,25.5c-7.7,0.5-15.3,1-23,1.6
	c-1.9,0.2-3.8,0.3-5.8,0.4c-3.8,0.3-7.6,0.6-11.4,1c-3.8,0.3-7.6,0.7-11.4,1c-1.9,0.2-3.8,0.3-5.7,0.5c-1.9,0.2-3.8,0.4-5.7,0.5
	c-1.9,0.2-3.8,0.4-5.7,0.6c-1.9,0.2-3.7,0.4-5.6,0.6c-0.1,0-0.1,0-0.1,0c-0.3,0-0.7,0.1-1,0.1c-1.5,0.1-3.1,0.3-4.6,0.5
	c-1.9,0.2-3.8,0.4-5.7,0.6c-3.8,0.4-7.6,0.8-11.4,1.3c-5.7,0.7-11.3,1.3-17,2.1c-1.9,0.2-3.8,0.5-5.6,0.7c-3.2,0.4-6.5,0.8-9.7,1.3
	c-0.2,0-0.4,0.1-0.7,0.1c-2.2,0.3-4.4,0.6-6.5,0.9c-1.9,0.3-3.8,0.5-5.6,0.8c-1.9,0.3-3.7,0.5-5.6,0.8c-1.9,0.3-3.8,0.6-5.6,0.8
	c-1.7,0.3-3.5,0.5-5.2,0.8c-4.2,0.6-8.4,1.3-12.6,1.9c-0.5,0.1-0.9,0.1-1.4,0.2c1.8,4.7,4.4,10.2,8.4,16.3
	c-12.6-5.6-22.5-22-23.9-24.6c-0.1-0.2-0.2-0.3-0.2-0.3c-4.1-6.8-7.6-14-10.3-21.6c-2.2-6.3-4-12.9-5.1-19.6
	c-1.1-6.6-1.7-13.3-1.7-20.2c0-2.8,0.1-5.5,0.3-8.2c0.7-10.3,2.7-20.2,5.9-29.7c0.1-0.2,0.1-0.3,0.2-0.5c0,0,0,0,0,0
	c0.7-2,1.4-4,2.2-6c0,0,0,0,0,0c1-3.3,1.6-6.7,1.9-10.3c0,0,0,0,0,0c0-0.5,0.1-1,0.1-1.5c0-0.6,0.1-1.1,0.1-1.7c0-0.4,0-0.8,0-1.2
	c0-0.4,0-0.8-0.1-1.2c0-0.4,0-0.8-0.1-1.1c0-0.4-0.1-0.9-0.1-1.3c0-0.3-0.1-0.7-0.1-1c0-0.1,0-0.1,0-0.2c0-0.2-0.1-0.5-0.1-0.7
	c0,0,0-0.1,0-0.1c0,0,0,0,0-0.1c-0.1-0.4-0.1-0.8-0.2-1.2c-0.1-0.3-0.1-0.7-0.2-1c0-0.3-0.1-0.5-0.2-0.8c-0.1-0.2-0.1-0.5-0.2-0.7
	c-0.1-0.2-0.1-0.5-0.2-0.7c-0.1-0.3-0.2-0.7-0.2-1c-0.1-0.4-0.2-0.7-0.3-1.1c-0.1-0.4-0.2-0.7-0.3-1c-0.1-0.3-0.2-0.6-0.3-0.9
	c0-0.1-0.1-0.2-0.1-0.3c-0.1-0.3-0.2-0.6-0.3-0.9c-0.1-0.3-0.2-0.7-0.4-1c-0.1-0.3-0.3-0.7-0.4-1c-0.1-0.3-0.3-0.7-0.4-1
	c-0.1-0.3-0.2-0.5-0.4-0.8c-0.2-0.4-0.4-0.8-0.6-1.2c-0.2-0.3-0.3-0.6-0.5-1c-0.2-0.3-0.3-0.6-0.5-0.9c-0.2-0.3-0.4-0.6-0.5-0.9
	c-0.2-0.3-0.4-0.6-0.6-0.9c-0.2-0.4-0.5-0.8-0.8-1.2c-0.1-0.2-0.3-0.4-0.4-0.6c-0.2-0.3-0.4-0.6-0.7-0.9c-0.2-0.3-0.4-0.5-0.6-0.8
	c-0.3-0.4-0.5-0.7-0.8-1c-0.2-0.2-0.3-0.4-0.5-0.7c-0.1-0.2-0.3-0.4-0.4-0.5c-0.1-0.2-0.3-0.3-0.4-0.4c-0.2-0.2-0.4-0.4-0.6-0.6
	c-0.2-0.3-0.5-0.5-0.7-0.8c-0.2-0.3-0.5-0.5-0.8-0.8c-0.3-0.2-0.5-0.5-0.8-0.8c-0.2-0.2-0.5-0.5-0.8-0.7c-0.8-0.7-1.6-1.4-2.4-2.1
	c-0.3-0.2-0.5-0.4-0.8-0.7c-0.3-0.2-0.6-0.4-0.9-0.7c0,0,0,0,0,0c-0.3-0.2-0.6-0.4-0.9-0.6c0,0,0,0,0,0c-0.2-0.2-0.4-0.3-0.6-0.4
	c-0.1-0.1-0.1-0.1-0.2-0.1c-0.2-0.2-0.5-0.3-0.7-0.5c0,0-0.1,0-0.1-0.1c0,0,0,0-0.1,0c-0.3-0.2-0.7-0.4-1.1-0.6
	c-0.4-0.2-0.7-0.4-1.1-0.6c0,0-0.1,0-0.1-0.1c0,0,0,0-0.1,0c0,0,0,0,0,0c-0.1,0-0.2-0.1-0.3-0.1c-0.6-0.3-1.1-0.6-1.7-0.9
	c-0.2-0.1-0.4-0.2-0.6-0.3c-0.2-0.1-0.4-0.2-0.5-0.2c0,0-0.1,0-0.1,0c-0.3-0.1-0.6-0.3-0.9-0.4c0,0,0,0,0,0
	c-0.4-0.1-0.7-0.3-1.1-0.4c-0.3-0.1-0.7-0.3-1.1-0.4c-0.3-0.1-0.5-0.2-0.8-0.3c0,0-0.1,0-0.1,0s-0.1,0-0.1,0c0,0,0,0-0.1,0
	c-0.2-0.1-0.4-0.1-0.6-0.2c-0.2-0.1-0.4-0.1-0.7-0.2c-0.2-0.1-0.5-0.1-0.7-0.2c-0.1,0-0.2,0-0.2-0.1c-0.1,0-0.1,0-0.2,0
	c0,0,0,0-0.1,0c-0.2-0.1-0.4-0.1-0.6-0.2c0,0,0,0-0.1,0c0,0-0.1,0-0.1,0c0,0-0.1,0-0.1,0c-0.2-0.1-0.4-0.1-0.7-0.2
	c-0.2,0-0.3-0.1-0.5-0.1c0,0,0,0,0,0c0,0,0,0,0,0c0,0,0,0,0,0s0,0,0,0c0,0-0.1,0-0.1,0c-0.1,0-0.1,0-0.2,0c-0.3-0.1-0.5-0.1-0.8-0.2
	l-0.1,0c-0.1,0-0.2-0.1-0.3-0.1c-0.4-0.1-0.8-0.2-1.2-0.2c0,0,0,0,0,0c-0.1,0-0.2,0-0.3,0c-0.1,0-0.2,0-0.2,0c-0.1,0-0.1,0-0.2,0
	c-0.1,0-0.2,0-0.2,0c-0.5-0.1-1-0.2-1.4-0.2c-0.2,0-0.4-0.1-0.7-0.1c0,0-0.1,0-0.1,0c-0.3,0-0.5-0.1-0.8-0.1
	c-0.8-0.1-1.5-0.1-2.3-0.2c-0.4,0-0.8,0-1.2-0.1c-0.4,0-0.8,0-1.2,0c-0.5,0-0.9,0-1.4,0c-0.5,0-0.9,0-1.4,0.1
	c-14.6,0.9-27.5,8.4-35.6,19.6c0-0.1,0-0.1-0.1-0.2c-0.1,0.1-0.1,0.1-0.1,0.2c-5.7,7.8-9.1,17.5-9.1,27.9c0,11.2,3.9,21.6,10.4,29.7
	c1.9,1.9,3.8,3.9,5.6,5.9c18.6,20.9,29.8,48.5,29.8,78.6c0,9.3-1.1,18.4-3.1,27.1v0c-2.1,0.4-4.2,0.9-6.3,1.3
	c-2.1,0.4-4.2,0.9-6.2,1.3c0,0,0,0-0.1,0c-0.4,0.1-0.8,0.2-1.2,0.2c-3.7,0.8-7.5,1.6-11.2,2.4c-8.3,1.8-16.6,3.6-24.9,5.6
	c-4.1,1-8.3,1.9-12.4,2.9c-2.1,0.5-4.1,1-6.2,1.5c-4.1,1-8.2,2-12.3,3c-2.1,0.5-4.1,1-6.2,1.5c-2.3,0.6-4.6,1.2-6.8,1.7
	c-2.1,0.6-4.3,1.1-6.5,1.7c-1.7,0.4-3.4,0.9-5.1,1.4c-2,0.5-4.1,1.1-6.1,1.6c-2,0.5-4.1,1.1-6.1,1.6c-4.1,1.1-8.2,2.2-12.2,3.4
	c-4.1,1.1-8.1,2.3-12.2,3.4c-6.1,1.7-12.2,3.5-18.2,5.3c-6,1.8-12.1,3.6-18.1,5.5c-3.9,1.2-7.7,2.4-11.6,3.6
	c0.4,4.2,1.2,8.8,2.5,11.9c-2.8-2.2-5.8-5.7-8.8-9.9c0,0-0.1,0-0.2,0c0,0,0,0,0,0c-1.9-2.8-3.7-5.7-5.5-8.6
	c-5.1-8.2-9.7-16.8-13.8-25.6c-0.8-1.6-1.2-2.5-1.2-2.5c-3.5-7.6-6.7-15.4-9.5-23.4c-2.9-8.3-5.4-16.8-7.5-25.4
	c-4.9-20.3-7.5-41.5-7.5-63.3c0-21.7,2.6-42.8,7.4-63c0.8,28.2,4.8,55.5,11.8,81.6c3.1,11.6,6.7,22.9,10.9,34c0,0,0,0.1,0,0.1
	c0,0,0,0.1,0.1,0.2c0.2,0.5,0.4,1.1,0.6,1.6c2.7,6.8,6.5,13.1,11.2,18.6c2.7,3.1,5.6,6,8.8,8.5c10.7,8.5,24.1,13.8,38.8,14.3
	c0.7,0,1.5,0,2.2,0c24.3,0,45.5-13.2,56.8-32.8c-7.8,4.5-16.7,8-26.5,10.3c30.3-16.6,36.1-32,32.9-44.2c0,0,0,0,0-0.1
	c-4.1-12.7-16.1-21.9-30.2-21.9c-8.1,0-15.5,3-21.1,8.1c9.4-12.3,17.8-25.5,24.8-39.5c3.8-7.5,7.3-15.3,10.4-23.3
	c5.2-13.5,9.3-27.6,12.2-42.2c0,0,0,0,0-0.1c0,0,0,0,0,0c0.4-2.2,0.8-4.3,1.2-6.5v0c0.3-2.4,0.5-4.9,0.5-7.4
	c0-32.7-26.5-59.1-59.1-59.1c-27.9,0-51.2,19.3-57.5,45.2c-1.1-3.8-2.2-7.6-3.4-11.4c-4-12.6-8.4-25-13.4-37.2c0,0,0,0,0,0
	c-0.7-1.7-1.3-3.3-2-4.9C878.7,489,817,414.3,739.3,361.5c-5.4-3.7-10.9-7.2-16.4-10.7c2.1,4.5,4.1,8.9,6.2,13.4
	c17.2,37.6,33.1,75.8,47.7,114.7c26.1,26.9,57.2,65.1,73.6,107.7c-19.6-26.7-38.5-56.9-63.2-79.3c39.4,110.4,68.3,225.7,85.5,344.9
	c3.1,21.6,5.9,43.4,8.2,65.3c-1.6,0.6-3.1,1.1-4.7,1.7c-0.1,0-0.1,0-0.2,0.1c-1.5,0.6-3.1,1.1-4.6,1.7c-1.6,0.6-3.1,1.2-4.7,1.7
	c-0.1,0-0.1,0-0.2,0.1c-2.6,1-4.2,3.7-3.7,6.5l12.4,72.9c2.7-1,5.4-2,8.1-2.9c2.7-1,5.4-1.9,8.1-2.9c5.4-1.9,10.8-3.8,16.2-5.6
	c10.8-3.7,21.7-7.3,32.6-10.8c3.1-1,6.2-2,9.3-3c0,0,0,0,0.1,0c3.1-1,6.2-2,9.4-2.9c3.1-1,6.3-2,9.4-2.9c9.4-2.9,18.9-5.7,28.3-8.4
	c0.3-0.1,0.5-0.2,0.8-0.2c2.8-0.8,5.6-1.6,8.4-2.4c0.2,0,0.3-0.1,0.5-0.1c3.1-0.9,6.2-1.7,9.3-2.6c0,0,0.1,0,0.1,0
	c3.1-0.9,6.3-1.7,9.5-2.6c3.2-0.9,6.4-1.7,9.6-2.5c0.1,0,0.3-0.1,0.4-0.1c3-0.8,6.1-1.6,9.1-2.4c3.2-0.8,6.4-1.6,9.6-2.4
	c2.8-0.7,5.6-1.4,8.4-2.1c0.7-0.2,1.4-0.4,2.2-0.5c2.9-0.7,5.8-1.4,8.7-2.1c0,0,0,0,0.1,0c3.2-0.8,6.3-1.5,9.5-2.2
	c0.1,0,0.1,0,0.2,0c3.2-0.8,6.4-1.5,9.6-2.2c2.7-0.6,5.4-1.2,8.1-1.8c0.8-0.2,1.5-0.3,2.3-0.5c2.6-0.6,5.3-1.2,7.9-1.8
	c1-0.2,1.9-0.4,2.9-0.6c2.6-0.6,5.1-1.1,7.7-1.6c0.4-0.1,0.8-0.2,1.2-0.3c2.9-0.6,5.9-1.2,8.8-1.8c3.2-0.7,6.5-1.3,9.8-2
	c3.2-0.7,6.5-1.3,9.8-1.9c3.2-0.6,6.3-1.2,9.5-1.8c3.2-0.6,6.3-1.2,9.5-1.8c0.3-0.1,0.7-0.1,1-0.2c3.1-0.6,6.3-1.2,9.4-1.7
	c1.5-0.3,3-0.5,4.5-0.8c1.4-0.2,2.8-0.5,4.2-0.7l3-0.5c2.7-0.5,5.3-0.9,7.9-1.3c7.5-1.3,15.1-2.5,22.6-3.6c1.4-0.2,2.7-0.4,4.1-0.6
	c7.6-1.2,15.3-2.3,23-3.3c1.7-0.2,3.3-0.5,4.9-0.7c1.8-0.2,3.6-0.5,5.3-0.7c1.4-0.2,2.8-0.4,4.2-0.5c3.1-0.4,6.2-0.8,9.2-1.2
	c1.4-0.2,2.9-0.4,4.3-0.5c8.2-1,16.5-2,24.8-2.9c1.4-0.2,2.9-0.3,4.3-0.5c2.1-0.2,4.3-0.5,6.4-0.7c1.7-0.2,3.5-0.4,5.2-0.5
	c2.1-0.2,4.1-0.4,6.2-0.6c1.5-0.1,2.9-0.3,4.4-0.4c2-0.2,4.1-0.4,6.1-0.6c1.1-0.1,2.2-0.2,3.3-0.3c5.1-0.5,10.2-0.9,15.2-1.3
	c1.8-0.1,3.6-0.3,5.3-0.4c1.3-0.1,2.5-0.2,3.8-0.3c0.9-0.1,1.8-0.1,2.8-0.2c3.6-0.3,7.2-0.5,10.7-0.8c1.9-0.1,3.8-0.3,5.8-0.4
	c1.3-0.1,2.6-0.2,3.9-0.2c1.6-0.1,3.2-0.2,4.8-0.3c14.6-0.9,29.3-1.6,44-2.2c1.5-0.1,3-0.1,4.5-0.2c1,0,1.9-0.1,2.9-0.1
	c1.5-0.1,3.1-0.1,4.6-0.2c11.5-0.3,23-0.6,34.6-0.7c1.7,0,3.4,0,5.1-0.1c1.5,0,3,0,4.4,0c3.5,0,7,0,10.5,0c3.5,0,7,0,10.5,0
	c1.5,0,3,0,4.4,0c1.7,0,3.4,0,5.1,0.1c11.5,0.1,23.1,0.4,34.6,0.7c1.5,0,3.1,0.1,4.6,0.2c1,0,2,0.1,2.9,0.1c1.5,0.1,3,0.1,4.5,0.2
	c14.7,0.5,29.4,1.3,44,2.2c1.6,0.1,3.2,0.2,4.8,0.3c1.3,0.1,2.6,0.2,3.9,0.2c1.9,0.1,3.9,0.2,5.8,0.4c3.6,0.2,7.1,0.5,10.7,0.8
	c0.9,0.1,1.8,0.1,2.8,0.2c1.3,0.1,2.5,0.2,3.8,0.3c1.8,0.1,3.6,0.3,5.3,0.4c5.1,0.4,10.2,0.9,15.2,1.3c1.1,0.1,2.2,0.2,3.3,0.3
	c2,0.2,4.1,0.4,6.1,0.6c1.5,0.1,2.9,0.3,4.4,0.4c2.1,0.2,4.1,0.4,6.2,0.6c1.8,0.2,3.5,0.4,5.2,0.5c2.1,0.2,4.3,0.4,6.4,0.7
	c1.4,0.1,2.8,0.3,4.3,0.5c8.3,0.9,16.5,1.9,24.8,2.9c1.5,0.2,2.9,0.4,4.3,0.5c3.1,0.4,6.1,0.8,9.2,1.2c1.4,0.2,2.8,0.3,4.2,0.5
	c1.8,0.2,3.6,0.5,5.3,0.7c1.6,0.2,3.3,0.5,4.9,0.7c7.7,1.1,15.3,2.2,23,3.3c1.4,0.2,2.7,0.4,4.1,0.6c7.6,1.2,15.1,2.4,22.6,3.6
	c2.7,0.4,5.3,0.9,8,1.3l3,0.5c1.4,0.2,2.8,0.5,4.2,0.7c1.5,0.3,3,0.5,4.5,0.8c3.1,0.5,6.3,1.1,9.4,1.7c0.3,0.1,0.7,0.1,1,0.2
	c3.2,0.6,6.3,1.2,9.5,1.8c3.2,0.6,6.3,1.2,9.5,1.8c3.3,0.6,6.5,1.3,9.8,1.9c3.3,0.6,6.5,1.3,9.8,2c2.9,0.6,5.9,1.2,8.8,1.8
	c0.4,0.1,0.8,0.2,1.2,0.3c2.6,0.5,5.1,1.1,7.7,1.6c1,0.2,1.9,0.4,2.9,0.6c2.7,0.6,5.3,1.2,7.9,1.8c0.8,0.2,1.5,0.3,2.3,0.5
	c2.7,0.6,5.4,1.2,8.1,1.8c3.2,0.7,6.4,1.5,9.6,2.2c0,0,0.1,0,0.2,0c3.2,0.7,6.3,1.5,9.5,2.2c0,0,0,0,0.1,0c2.9,0.7,5.8,1.4,8.7,2.1
	c0.7,0.2,1.4,0.3,2.2,0.5c2.8,0.7,5.6,1.4,8.4,2.1c3.2,0.8,6.4,1.6,9.6,2.4c3,0.8,6.1,1.6,9.1,2.4c0.1,0,0.3,0.1,0.4,0.1
	c3.2,0.8,6.4,1.7,9.6,2.5c3.2,0.8,6.3,1.7,9.4,2.6c0.1,0,0.1,0,0.1,0c3.1,0.8,6.2,1.7,9.3,2.6c0.2,0,0.3,0.1,0.5,0.1
	c2.8,0.8,5.6,1.6,8.4,2.4c0.3,0.1,0.5,0.2,0.8,0.2c9.5,2.7,18.9,5.5,28.3,8.4c3.1,0.9,6.3,1.9,9.4,2.9c3.1,1,6.2,2,9.4,2.9
	c0,0,0,0,0.1,0c3.1,1,6.2,2,9.3,3c10.9,3.5,21.8,7.1,32.6,10.8c5.4,1.9,10.8,3.8,16.2,5.6c2.7,1,5.4,1.9,8.1,2.9
	c2.7,1,5.4,1.9,8,2.9l12.4-72.9c0.5-2.8-1.1-5.5-3.7-6.5c-0.1,0-0.1,0-0.2-0.1c-1.6-0.6-3.1-1.2-4.7-1.7c-1.5-0.6-3.1-1.1-4.6-1.7
	c-0.1,0-0.1,0-0.2-0.1c-1.6-0.6-3.1-1.1-4.6-1.7c2.4-21.9,5.1-43.7,8.2-65.3c17.2-119.1,46.1-234.5,85.5-344.9
	c-24.6,22.4-43.6,52.6-63.2,79.3c16.3-42.5,47.5-80.8,73.6-107.7c14.6-38.9,30.6-77.2,47.7-114.7c2-4.5,4.1-8.9,6.2-13.4
	C2274.5,354.3,2269,357.9,2263.6,361.5z M2009.9,685.6c-21.6,0-39.2-17.5-39.2-39.2c0-21.6,17.5-39.2,39.2-39.2
	c21.7,0,39.2,17.6,39.2,39.2C2049.1,668,2031.6,685.6,2009.9,685.6z M1692.3,378.5c31.2,0,56.4,25.3,56.4,56.4
	c0,14.8-5.7,28.3-15.1,38.4c0,0,0,0,0,0c0,0-0.1,0.1-0.1,0.1c-18.5,22.3-37,25.2-71,25.2c3.6-1.7,7.5-5.7,11.1-10.4
	c-22-7.7-37.7-28.6-37.7-53.2C1635.9,403.7,1661.1,378.5,1692.3,378.5z M1329.3,488.1c3.6,4.7,7.5,8.8,11.1,10.4
	c-34.1,0-52.5-2.8-71.1-25.2c0,0-0.1-0.1-0.1-0.1c0,0,0,0,0,0c-9.3-10.1-15.1-23.5-15.1-38.4c0-31.2,25.3-56.4,56.4-56.4
	c31.1,0,56.4,25.3,56.4,56.4C1367.1,459.5,1351.3,480.4,1329.3,488.1z M993,607.2c21.6,0,39.2,17.6,39.2,39.2
	c0,21.7-17.6,39.2-39.2,39.2c-21.7,0-39.2-17.5-39.2-39.2C953.8,624.7,971.3,607.2,993,607.2z M1143.8,731.9c-16,0-29-13-29-29
	c0-16,13-29,29-29c16,0,29,13,29,29C1172.7,718.9,1159.8,731.9,1143.8,731.9z M1501.5,184.8c15.3,1.3,27.2,14.1,27.2,29.7
	c0,15.6-12,28.4-27.2,29.7c-15.3-1.3-27.2-14.1-27.2-29.7C1474.2,198.9,1486.2,186.1,1501.5,184.8z M1501.5,593.4
	c-21.1-2-37.7-28.2-37.7-60.3c0-32.1,16.7-58.3,37.7-60.3c21,2,37.7,28.2,37.7,60.3C1539.2,565.2,1522.5,591.4,1501.5,593.4z
	 M1830.2,702.9c0-16,13-29,29-29c16,0,29,13,29,29c0,16-13,29-29,29C1843.2,731.9,1830.2,718.9,1830.2,702.9z M1400.1,765.3
	c-5.5,11.9-12,21.8-16.7,28.3c-0.4-1-0.9-1.9-1.3-2.9c-8.6-18.3-21.5-37.5-40.8-52.2c20.2,5.3,38.1,13.5,54,23.7
	C1396.9,763.1,1398.5,764.2,1400.1,765.3z M1658.8,739.1c-16.7,12.8-28.6,28.8-37.1,44.8c-0.5,1-1,2-1.5,3
	c-4.3-6-9.8-14.5-14.7-24.5c1.6-1,3.2-2,4.9-3C1624.8,750.8,1640.9,743.8,1658.8,739.1z"/>
</svg>
