<?xml version="1.0" standalone="no"?>
<!DOCTYPE svg PUBLIC "-//W3C//DTD SVG 20010904//EN"
 "http://www.w3.org/TR/2001/REC-SVG-20010904/DTD/svg10.dtd">
<svg version="1.0" xmlns="http://www.w3.org/2000/svg"
 width="512.000000pt" height="512.000000pt" viewBox="0 0 512.000000 512.000000"
 preserveAspectRatio="xMidYMid meet">

<g transform="translate(0.000000,512.000000) scale(0.100000,-0.100000)"
fill="#000000" stroke="none">
<path d="M2481 5109 c-174 -34 -322 -188 -351 -365 -6 -35 -10 -408 -10 -901
l0 -843 -842 0 c-494 0 -867 -4 -902 -10 -247 -40 -417 -288 -363 -529 28
-122 121 -247 223 -299 105 -53 80 -52 1016 -52 l868 0 0 -849 c0 -535 4 -868
10 -902 53 -280 363 -435 627 -314 115 52 196 144 233 264 19 61 20 95 20 932
l0 869 869 0 c837 0 871 1 932 20 120 37 212 118 264 233 121 264 -34 574
-314 627 -34 6 -367 10 -902 10 l-849 0 0 868 c0 769 -2 875 -16 923 -23 78
-50 125 -102 181 -108 116 -261 167 -411 137z"/>
</g>
</svg>
