<?xml version="1.0" encoding="UTF-8"?>
<svg xmlns="http://www.w3.org/2000/svg" xmlns:xlink="http://www.w3.org/1999/xlink" width="15px" height="15px" viewBox="0 0 15 15" version="1.1">
<g id="surface1">
<path style=" stroke:none;fill-rule:nonzero;fill:rgb(0%,0%,0%);fill-opacity:1;" d="M 11.976562 2.660156 C 11.9375 2.675781 11.855469 2.707031 11.800781 2.734375 C 11.746094 2.765625 10.332031 4.152344 8.660156 5.820312 L 5.621094 8.859375 L 4.457031 7.695312 C 3.660156 6.902344 3.253906 6.515625 3.164062 6.46875 C 2.964844 6.367188 2.644531 6.355469 2.414062 6.445312 C 2.265625 6.5 2.191406 6.5625 1.886719 6.863281 C 1.464844 7.289062 1.398438 7.402344 1.394531 7.730469 C 1.386719 8.152344 1.28125 8.019531 3.378906 10.128906 C 4.65625 11.410156 5.292969 12.027344 5.375 12.066406 C 5.523438 12.136719 5.722656 12.136719 5.871094 12.066406 C 5.953125 12.027344 7.140625 10.859375 9.738281 8.253906 C 13.925781 4.0625 13.605469 4.414062 13.597656 3.984375 C 13.597656 3.65625 13.527344 3.539062 13.105469 3.117188 C 12.808594 2.816406 12.726562 2.753906 12.582031 2.699219 C 12.410156 2.636719 12.125 2.617188 11.976562 2.660156 Z M 11.976562 2.660156 "/>
</g>
</svg>
