<?xml version="1.0" standalone="no"?>
<!DOCTYPE svg PUBLIC "-//W3C//DTD SVG 20010904//EN"
 "http://www.w3.org/TR/2001/REC-SVG-20010904/DTD/svg10.dtd">
<svg version="1.0" xmlns="http://www.w3.org/2000/svg"
 width="169.000000pt" height="169.000000pt" viewBox="0 0 169.000000 169.000000"
 preserveAspectRatio="xMidYMid meet">

<g transform="translate(0.000000,169.000000) scale(0.100000,-0.100000)"
fill="#000000" stroke="none">
<path d="M275 1676 c-39 -18 -185 -169 -218 -226 -98 -172 -67 -367 93 -578
88 -116 678 -697 769 -757 140 -92 269 -128 387 -108 105 18 167 55 276 162
107 107 121 137 98 214 -23 79 -247 269 -350 297 -55 15 -88 -2 -158 -80 -68
-75 -110 -96 -170 -85 -31 5 -71 41 -259 228 -187 188 -223 228 -228 259 -11
60 10 102 85 170 78 70 95 103 80 158 -14 53 -96 174 -171 255 -91 97 -160
124 -234 91z"/>
</g>
</svg>
